<mxfile host="app.diagrams.net" agent="Mozilla/5.0 (Windows NT 10.0; Win64; x64) AppleWebKit/537.36 (KHTML, like Gecko) Chrome/133.0.0.0 Safari/537.36" version="26.0.16">
  <diagram name="PÃ¡gina-1" id="Zp4pUx1WhtS-zzc_JheZ">
    <mxGraphModel dx="1050" dy="569" grid="1" gridSize="10" guides="1" tooltips="1" connect="1" arrows="1" fold="1" page="1" pageScale="1" pageWidth="827" pageHeight="1169" math="0" shadow="0">
      <root>
        <mxCell id="0" />
        <mxCell id="1" parent="0" />
        <mxCell id="LFIv5RTT1GAlPY9fxfg0-1" value="&amp;nbsp; &amp;nbsp; &amp;nbsp;BACKEND" style="shape=folder;fontStyle=1;spacingTop=10;tabWidth=130;tabHeight=40;tabPosition=left;html=1;whiteSpace=wrap;fillColor=#dae8fc;strokeColor=#6c8ebf;verticalAlign=top;align=left;fontSize=16;spacingRight=0;" vertex="1" parent="1">
          <mxGeometry x="70" y="110" width="690" height="270" as="geometry" />
        </mxCell>
        <mxCell id="LFIv5RTT1GAlPY9fxfg0-2" value="CONFIG/CHECKSTYLE" style="shape=folder;fontStyle=1;spacingTop=10;tabWidth=40;tabHeight=14;tabPosition=left;html=1;whiteSpace=wrap;verticalAlign=middle;fillColor=#ffe6cc;strokeColor=#d79b00;labelBackgroundColor=none;fontColor=#000000;fontSize=16;" vertex="1" parent="1">
          <mxGeometry x="120" y="270" width="270" height="70" as="geometry" />
        </mxCell>
        <mxCell id="LFIv5RTT1GAlPY9fxfg0-4" value="LOCUST" style="shape=folder;fontStyle=1;spacingTop=10;tabWidth=40;tabHeight=14;tabPosition=left;html=1;whiteSpace=wrap;verticalAlign=middle;fillColor=#ffe6cc;strokeColor=#d79b00;fontSize=16;" vertex="1" parent="1">
          <mxGeometry x="580" y="170" width="143" height="70" as="geometry" />
        </mxCell>
        <mxCell id="LFIv5RTT1GAlPY9fxfg0-5" value="SRC" style="shape=folder;fontStyle=1;spacingTop=10;tabWidth=40;tabHeight=14;tabPosition=left;html=1;whiteSpace=wrap;verticalAlign=middle;fillColor=#ffe6cc;strokeColor=#d79b00;align=center;fontSize=16;" vertex="1" parent="1">
          <mxGeometry x="120" y="170" width="143" height="70" as="geometry" />
        </mxCell>
        <mxCell id="LFIv5RTT1GAlPY9fxfg0-6" value="DB-SETUP" style="shape=folder;fontStyle=1;spacingTop=10;tabWidth=40;tabHeight=14;tabPosition=left;html=1;whiteSpace=wrap;verticalAlign=middle;fillColor=#ffe6cc;strokeColor=#d79b00;fontSize=16;" vertex="1" parent="1">
          <mxGeometry x="350" y="170" width="143" height="70" as="geometry" />
        </mxCell>
        <mxCell id="LFIv5RTT1GAlPY9fxfg0-7" value="GRADLE/WRAPPER" style="shape=folder;fontStyle=1;spacingTop=10;tabWidth=40;tabHeight=14;tabPosition=left;html=1;whiteSpace=wrap;verticalAlign=middle;fillColor=#ffe6cc;strokeColor=#d79b00;fontColor=#000000;labelBackgroundColor=none;fontSize=16;" vertex="1" parent="1">
          <mxGeometry x="450" y="270" width="273" height="70" as="geometry" />
        </mxCell>
        <mxCell id="LFIv5RTT1GAlPY9fxfg0-8" style="edgeStyle=orthogonalEdgeStyle;rounded=0;orthogonalLoop=1;jettySize=auto;html=1;exitX=1;exitY=0.5;exitDx=0;exitDy=0;" edge="1" parent="1">
          <mxGeometry relative="1" as="geometry">
            <mxPoint x="461" y="131" as="sourcePoint" />
            <mxPoint x="461" y="131" as="targetPoint" />
          </mxGeometry>
        </mxCell>
      </root>
    </mxGraphModel>
  </diagram>
</mxfile>
